<?xml version="1.0" encoding="UTF-8"?><!DOCTYPE svg PUBLIC "-//W3C//DTD SVG 1.1//EN" "http://www.w3.org/Graphics/SVG/1.1/DTD/svg11.dtd"><svg xmlns="http://www.w3.org/2000/svg" xmlns:xlink="http://www.w3.org/1999/xlink" version="1.1" id="Facebook" x="0px" y="0px" viewBox="0 0 20 20" xml:space="preserve"><path d="M17 1H3c-1.1 0-2 .9-2 2v14c0 1.101.9 2 2 2h7v-7H8V9.525h2v-2.05c0-2.164 1.212-3.684 3.766-3.684l1.803.002v2.605h-1.197c-.994 0-1.372.746-1.372 1.438v1.69h2.568L15 12h-2v7h4c1.1 0 2-.899 2-2V3c0-1.1-.9-2-2-2z"/><metadata><rdf:RDF xmlns:rdf="http://www.w3.org/1999/02/22-rdf-syntax-ns#" xmlns:rdfs="http://www.w3.org/2000/01/rdf-schema#" xmlns:dc="http://purl.org/dc/elements/1.1/"><rdf:Description about="https://iconscout.com/legal#licenses" dc:title="facebook" dc:description="facebook" dc:publisher="Iconscout" dc:date="2017-09-14" dc:format="image/svg+xml" dc:language="en"><dc:creator><rdf:Bag><rdf:li>Daniel Bruce</rdf:li></rdf:Bag></dc:creator></rdf:Description></rdf:RDF></metadata></svg>